<svg xmlns="http://www.w3.org/2000/svg" viewBox="0 0 100 100">
  <defs>
    <linearGradient id="grad" x1="0%" y1="0%" x2="100%" y2="100%">
      <stop offset="0%" style="stop-color:#4F46E5;stop-opacity:1" />
      <stop offset="100%" style="stop-color:#7C3AED;stop-opacity:1" />
    </linearGradient>
  </defs>

  <!-- Knight piece silhouette -->
  <path d="M 30 80 L 70 80 L 65 70 L 35 70 Z" fill="url(#grad)"/>
  <path d="M 40 70 Q 38 60 40 50 L 42 45 Q 35 42 35 35 Q 35 28 42 25 L 45 20 Q 48 15 52 15 Q 56 18 58 22 L 62 25 Q 65 28 66 32 Q 67 36 65 40 L 62 45 Q 58 48 55 52 L 58 58 Q 60 63 60 70 Z" fill="url(#grad)"/>

  <!-- Eye (blind theme) -->
  <circle cx="52" cy="35" r="3" fill="#fff" opacity="0.3"/>
</svg>
